<?xml version="1.0" encoding="UTF-8"?>
<svg xmlns="http://www.w3.org/2000/svg" xmlns:xlink="http://www.w3.org/1999/xlink" width="48pt" height="48pt" viewBox="0 0 48 48" version="1.1">
<g id="surface1">
<path style=" stroke:none;fill-rule:evenodd;fill:rgb(63.137255%,65.490196%,67.45098%);fill-opacity:1;" d="M 34 4 L 38 4 L 38 12 L 34 12 Z "/>
<path style="fill:none;stroke-width:2;stroke-linecap:butt;stroke-linejoin:miter;stroke:rgb(63.137255%,65.490196%,67.45098%);stroke-opacity:1;stroke-miterlimit:10;" d="M 13 8 C 13 10.761719 10.761719 13 8 13 C 5.238281 13 3 10.761719 3 8 C 3 5.238281 5.238281 3 8 3 C 10.761719 3 13 5.238281 13 8 Z " transform="matrix(2,0,0,2,0,0)"/>
<path style=" stroke:none;fill-rule:evenodd;fill:rgb(63.137255%,65.490196%,67.45098%);fill-opacity:1;" d="M 26 26 L 36 26 L 36 36 L 26 36 Z "/>
<path style="fill:none;stroke-width:2;stroke-linecap:butt;stroke-linejoin:miter;stroke:rgb(63.137255%,65.490196%,67.45098%);stroke-opacity:1;stroke-miterlimit:10;" d="M 8 5 L 8 8 L 9.599609 9.599609 " transform="matrix(2,0,0,2,0,0)"/>
<path style=" stroke:none;fill-rule:nonzero;fill:rgb(63.137255%,65.490196%,67.45098%);fill-opacity:1;" d="M 40 8 L 27.398438 8 C 29 10.199219 30 13 30 16 C 30 16.601563 30 17.398438 29.800781 18 L 40 18 L 40 40 L 12 40 L 12 29.398438 C 10.601563 29 9.199219 28.398438 8 27.398438 L 8 40 C 8 42.199219 9.800781 44 12 44 L 40 44 C 42.199219 44 44 42.199219 44 40 L 44 12 C 44 9.800781 42.199219 8 40 8 Z "/>
</g>
</svg>
