<?xml version="1.0" encoding="UTF-8"?>
<svg xmlns="http://www.w3.org/2000/svg" xmlns:xlink="http://www.w3.org/1999/xlink" width="96pt" height="96pt" viewBox="0 0 96 96" version="1.1">
<g id="surface1">
<path style=" stroke:none;fill-rule:nonzero;fill:rgb(75.294118%,75.294118%,75.294118%);fill-opacity:1;" d="M 47.578125 42.300781 C 44.726563 38.398438 40.226563 32.550781 39.777344 32.699219 C 39.328125 32.851563 42.027344 39.449219 43.976563 43.800781 C 45.027344 43.199219 46.226563 42.601563 47.578125 42.300781 Z "/>
<path style=" stroke:none;fill-rule:nonzero;fill:rgb(75.294118%,75.294118%,75.294118%);fill-opacity:1;" d="M 49.976563 42 C 50.726563 42 51.328125 42 51.925781 42.148438 C 51.328125 37.351563 50.425781 30 49.976563 30 C 49.527344 30 48.628906 37.351563 48.027344 42.148438 C 48.628906 42 49.226563 42 49.976563 42 Z "/>
<path style=" stroke:none;fill-rule:nonzero;fill:rgb(75.294118%,75.294118%,75.294118%);fill-opacity:1;" d="M 55.976563 43.949219 C 57.925781 39.449219 60.628906 33 60.175781 32.851563 C 59.726563 32.550781 55.378906 38.550781 52.378906 42.449219 C 53.726563 42.601563 54.925781 43.199219 55.976563 43.949219 Z "/>
<path style=" stroke:none;fill-rule:nonzero;fill:rgb(75.294118%,75.294118%,75.294118%);fill-opacity:1;" d="M 58.675781 47.550781 C 62.578125 44.699219 67.828125 40.5 67.675781 40.199219 C 67.527344 39.75 61.078125 42.449219 56.578125 44.398438 C 57.476563 45.300781 58.226563 46.351563 58.675781 47.550781 Z "/>
<path style=" stroke:none;fill-rule:nonzero;fill:rgb(75.294118%,75.294118%,75.294118%);fill-opacity:1;" d="M 58.828125 48.449219 C 58.828125 48.75 58.976563 49.050781 58.976563 49.5 C 58.976563 50.550781 58.675781 51.449219 58.226563 52.351563 C 63.027344 51.75 70.378906 50.851563 70.378906 50.398438 C 70.378906 49.949219 63.777344 49.050781 58.828125 48.449219 Z "/>
<path style=" stroke:none;fill-rule:nonzero;fill:rgb(75.294118%,75.294118%,75.294118%);fill-opacity:1;" d="M 41.277344 47.550781 C 41.726563 46.351563 42.328125 45.300781 43.378906 44.398438 C 38.878906 42.449219 32.578125 39.75 32.277344 40.199219 C 32.128906 40.648438 37.378906 44.699219 41.277344 47.550781 Z "/>
<path style=" stroke:none;fill-rule:nonzero;fill:rgb(75.294118%,75.294118%,75.294118%);fill-opacity:1;" d="M 40.976563 49.5 C 40.976563 49.199219 40.976563 48.898438 41.128906 48.449219 C 38.277344 48.75 34.675781 49.199219 32.425781 49.648438 C 30.777344 49.949219 30.925781 50.851563 32.578125 51.148438 C 35.128906 51.601563 38.878906 52.050781 41.726563 52.351563 C 41.277344 51.449219 40.976563 50.550781 40.976563 49.5 Z "/>
<path style="fill:none;stroke-width:2;stroke-linecap:butt;stroke-linejoin:miter;stroke:rgb(75.294118%,75.294118%,75.294118%);stroke-opacity:1;stroke-miterlimit:10;" d="M 4 11 L 11 11 " transform="matrix(3,0,0,3,0,0)"/>
<path style="fill:none;stroke-width:2;stroke-linecap:butt;stroke-linejoin:miter;stroke:rgb(75.294118%,75.294118%,75.294118%);stroke-opacity:1;stroke-miterlimit:10;" d="M 6 9.5 C 6 8.671875 7.5 6 7.5 6 C 7.5 6 9 8.671875 9 9.5 C 9 10.328125 8.328125 11 7.5 11 C 6.671875 11 6 10.328125 6 9.5 Z " transform="matrix(3,0,0,3,0,0)"/>
<path style="fill:none;stroke-width:2;stroke-linecap:butt;stroke-linejoin:miter;stroke:rgb(75.294118%,75.294118%,75.294118%);stroke-opacity:1;stroke-miterlimit:10;" d="M 14 16.5 C 14 15.11849 15.11849 14 16.5 14 C 17.88151 14 19 15.11849 19 16.5 C 19 17.88151 17.88151 20 16.5 20 C 15.11849 20 14 17.88151 14 16.5 Z " transform="matrix(3,0,0,3,0,0)"/>
<path style="fill:none;stroke-width:2;stroke-linecap:round;stroke-linejoin:round;stroke:rgb(75.294118%,75.294118%,75.294118%);stroke-opacity:1;stroke-miterlimit:4;" d="M 7.5 11 C 7.501302 11.002604 8.347656 18 8.347656 18 C 8.347656 18 11.68099 22 14 22 C 15.119792 22 20 22 20 22 C 20 22 23 22.380208 23 25 " transform="matrix(3,0,0,3,0,0)"/>
<path style="fill:none;stroke-width:2;stroke-linecap:round;stroke-linejoin:round;stroke:rgb(75.294118%,75.294118%,75.294118%);stroke-opacity:1;stroke-miterlimit:4;" d="M 7.5 11 L 8.347656 18 C 8.347656 18 10.528646 22.164063 12.001302 22.794271 " transform="matrix(3,0,0,3,0,0)"/>
<path style=" stroke:none;fill-rule:nonzero;fill:rgb(75.294118%,75.294118%,75.294118%);fill-opacity:1;" d="M 35.640625 61.542969 C 32.851563 68.730469 29.121094 75.730469 27.140625 77.644531 C 26.921875 76.257813 27.410156 73.449219 28.382813 70.019531 C 26.722656 68.25 25.277344 66.113281 24.039063 63.742188 C 21.757813 70.171875 19.914063 77.824219 22.292969 81.515625 C 23.324219 83.117188 25 84 27 84 C 31.222656 84 36.015625 77.175781 41.234375 63.707031 Z "/>
<path style=" stroke:none;fill-rule:nonzero;fill:rgb(75.294118%,75.294118%,75.294118%);fill-opacity:1;" d="M 64.289063 90 L 72.90625 76.210938 L 76.957031 78.910156 L 70.300781 90 L 77.296875 90 L 85.042969 77.089844 L 71.09375 67.789063 L 57.210938 90 Z "/>
<path style=" stroke:none;fill-rule:nonzero;fill:rgb(75.294118%,75.294118%,75.294118%);fill-opacity:1;" d="M 41.101563 90 C 38.726563 87.085938 33.886719 80.679688 32.886719 77.179688 L 27.117188 78.824219 C 28.074219 82.171875 31.046875 86.65625 33.511719 90.003906 L 41.101563 90.003906 Z "/>
</g>
</svg>
