<svg xmlns="http://www.w3.org/2000/svg" width="2421.093" height="2985" viewBox="0 0 807.031 995">
  <metadata><?xpacket begin="﻿" id="W5M0MpCehiHzreSzNTczkc9d"?>
<x:xmpmeta xmlns:x="adobe:ns:meta/" x:xmptk="Adobe XMP Core 5.6-c142 79.160924, 2017/07/13-01:06:39        ">
   <rdf:RDF xmlns:rdf="http://www.w3.org/1999/02/22-rdf-syntax-ns#">
      <rdf:Description rdf:about=""/>
   </rdf:RDF>
</x:xmpmeta>
                                                                                                    
                                                                                                    
                                                                                                    
                                                                                                    
                                                                                                    
                                                                                                    
                                                                                                    
                                                                                                    
                                                                                                    
                                                                                                    
                                                                                                    
                                                                                                    
                                                                                                    
                                                                                                    
                                                                                                    
                                                                                                    
                                                                                                    
                                                                                                    
                                                                                                    
                                                                                                    
                           
<?xpacket end="w"?></metadata>
<defs>
    <style>
      .cls-1 {
        fill: #31d8da;
        fill-rule: evenodd;
      }
    </style>
  </defs>
  <path class="cls-1" d="M1053.93,4521.45c2.33-64.88,26.56-125.16,14.08-204.55-12.08-76.83-16.71-117.92-17.22-196.18-0.29-46.28-8.7-129.34-2.09-174.77,5.98-41.14,15.51-82.19-16.37-112.03-29.77-27.87-165.841-8.62-206.155,12.02-43.415,22.21-115.8-21.44-162.632-18.71-37.121,2.16-79.216-11.53-115.273-2.47-12.422,3.12-46.588,16.67-75.168,17.05-61.26-8.24-120.887-14.51-147.329-14.65l-23.488,9.01c-12.487,12.87-9.468,50.35-11.744,69.13-4.037,33.32,4.643,56.59,4.7,90.87,0.165,97.73-12.57,187.95-20.359,284.83-6.633,82.49-8.34,170.9-7.817,253.9,0.266,42.81,6.267,84.56,9.441,126.97,1.716,22.8-1.5,50.79,2.193,73.07,20.138,121.52,243.15,65,262.509,65.05,19.506,0.02,86.592,25.52,145.623,10,17.762-4.67,93.206-15.22,111.941-12.96,19.735,2.39,68.829-17.47,118.942-14.87s100.348,16.58,120.558,3.78c35.73-22.56,19.51-63.33,27.52-107.05C1075.32,4626.93,1052.06,4573.51,1053.93,4521.45Zm-30.4,209.95c-13.34,29-53.356,13.29-111.9,9.93-13.157-.75-61.269,20.62-100.509,22.42-40.012,1.86-85.464-14.98-125.007-5.28-31.91,7.8-86.711,23.08-119.5,22.05-27.166-.85-196.469-10.61-222.838-16.6-46.507-10.57-18.569-21.25-34.359-84.72-16.882-67.84-1.615-114.1,2.468-181,3.945-64.5-17.735-111.72,9.973-181.13,17.139-42.9,7.9-93.29,2.808-140.04-5.881-53.96-7.56-105.2-7.56-160.29,0-16.6-9.341-106.44,9.395-120.08,49.066-35.72,59.214-12.14,106.3-11.72,50.241,0.47,101.95,4.21,117.364,5.78,44.185,4.48,83.775-15.45,127.694-20.03,39.553-4.13,84.1,3.87,122.98,13.95,57.589,14.93,198.5-29.21,209.245,19.65,5.66,25.69-6.26,48.09-3.12,92.19,2.57,36.33,19.13,49.92,19.13,121.8,0,29.32-16.66,104.35-17.58,156.71-1.35,78.47,12.54,110.39,12.54,154.3-0.01,69.95-12.54,110.19-6.27,168.31C1019.1,4637.66,1041.52,4692.25,1023.53,4731.4Z" transform="translate(-266.969 -3820)"/>
</svg>
