<?xml version="1.0" encoding="UTF-8"?>
<svg xmlns="http://www.w3.org/2000/svg" xmlns:xlink="http://www.w3.org/1999/xlink" width="96pt" height="96pt" viewBox="0 0 96 96" version="1.1">
<g id="surface1">
<path style=" stroke:none;fill-rule:nonzero;fill:rgb(25.098039%,24.313725%,24.313725%);fill-opacity:1;" d="M 51.757813 24.210938 C 51.273438 23.839844 50.714844 23.574219 50.066406 23.429688 C 49.433594 23.28125 48.742188 23.203125 48.019531 23.203125 C 47.292969 23.203125 46.605469 23.28125 45.953125 23.429688 C 45.300781 23.574219 44.730469 23.839844 44.246094 24.210938 C 43.769531 24.585938 43.386719 25.078125 43.109375 25.6875 C 42.828125 26.300781 42.691406 27.0625 42.691406 27.984375 C 42.691406 28.882813 42.832031 29.640625 43.109375 30.261719 C 43.386719 30.878906 43.765625 31.382813 44.246094 31.757813 C 44.730469 32.128906 45.300781 32.398438 45.953125 32.554688 C 46.605469 32.714844 47.292969 32.796875 48.019531 32.796875 C 48.742188 32.796875 49.433594 32.714844 50.066406 32.554688 C 50.714844 32.398438 51.273438 32.125 51.757813 31.757813 C 52.234375 31.382813 52.625 30.882813 52.910156 30.261719 C 53.199219 29.644531 53.34375 28.882813 53.34375 27.984375 C 53.34375 27.0625 53.199219 26.296875 52.910156 25.6875 C 52.625 25.078125 52.234375 24.585938 51.757813 24.210938 Z "/>
<path style=" stroke:none;fill-rule:nonzero;fill:rgb(25.098039%,24.313725%,24.313725%);fill-opacity:1;" d="M 43.109375 36.636719 L 52.894531 36.636719 L 52.894531 72.503906 L 43.109375 72.503906 Z "/>
<path style=" stroke:none;fill-rule:nonzero;fill:rgb(25.098039%,24.313725%,24.313725%);fill-opacity:1;" d="M 48 0 C 21.492188 0 0 21.492188 0 48 C 0 74.507813 21.492188 96 48 96 C 74.507813 96 96 74.507813 96 48 C 96 21.492188 74.507813 0 48 0 Z M 48 88 C 25.90625 88 8 70.09375 8 48 C 8 25.90625 25.90625 8 48 8 C 70.09375 8 88 25.90625 88 48 C 88 70.09375 70.09375 88 48 88 Z "/>
</g>
</svg>
