<?xml version="1.0" encoding="UTF-8"?>
<svg xmlns="http://www.w3.org/2000/svg" xmlns:xlink="http://www.w3.org/1999/xlink" width="96pt" height="96pt" viewBox="0 0 96 96" version="1.1">
<g id="surface1">
<path style=" stroke:none;fill-rule:nonzero;fill:rgb(100%,100%,100%);fill-opacity:1;" d="M 36 16 C 47.199219 16 56 24.800781 56 36 C 56 47.199219 47.199219 56 36 56 C 24.800781 56 16 47.199219 16 36 C 16 24.800781 24.800781 16 36 16 M 36 8 C 20.398438 8 8 20.398438 8 36 C 8 51.601563 20.398438 64 36 64 C 51.601563 64 64 51.601563 64 36 C 64 20.398438 51.601563 8 36 8 Z "/>
<path style=" stroke:none;fill-rule:nonzero;fill:rgb(100%,100%,100%);fill-opacity:1;" d="M 88 81.199219 L 81.199219 88 L 56 62.800781 L 56 56 L 62.800781 56 Z "/>
<path style=" stroke:none;fill-rule:nonzero;fill:rgb(100%,100%,100%);fill-opacity:1;" d="M 50.773438 54.296875 L 54.167969 50.902344 L 64.351563 61.085938 L 60.957031 64.480469 Z "/>
</g>
</svg>
