<?xml version="1.0" encoding="UTF-8"?>
<svg xmlns="http://www.w3.org/2000/svg" xmlns:xlink="http://www.w3.org/1999/xlink" width="52pt" height="52pt" viewBox="0 0 52 52" version="1.1">
<g id="surface1">
<path style="fill:none;stroke-width:2;stroke-linecap:round;stroke-linejoin:miter;stroke:rgb(50.196078%,50.196078%,50.196078%);stroke-opacity:1;stroke-miterlimit:10;" d="M 6 12 L 6 13.269531 C 6 13.269531 3.998047 13.074219 3.998047 15 C 3.998047 16.035156 4.789063 16.878906 5.798828 16.980469 C 7.236328 20.705078 9.449219 25 13 25 C 16.550781 25 18.763672 20.705078 20.201172 16.978516 C 21.208984 16.876953 21.998047 16.033203 21.998047 15 C 21.998047 13.003906 20 13.271484 20 13.271484 L 20 12 " transform="matrix(2,0,0,2,0,0)"/>
<path style=" stroke:none;fill-rule:nonzero;fill:rgb(50.196078%,50.196078%,50.196078%);fill-opacity:1;" d="M 27.007813 0.273438 C 26.382813 -0.09375 25.617188 -0.09375 24.992188 0.273438 C 24.992188 0.273438 0.0429688 15.210938 0.00390625 15.878906 C -0.0351563 16.546875 10.164063 24.832031 10.164063 24.832031 C 10.867188 25.359375 12.304688 23.152344 13.011719 22.636719 C 10.074219 22.195313 6.59375 14.296875 26 13.660156 C 45.832031 13.007813 43.996094 18.007813 43.996094 23.074219 C 43.996094 23.074219 52.035156 16.546875 51.996094 15.878906 C 51.957031 15.210938 27.007813 0.273438 27.007813 0.273438 Z "/>
<path style=" stroke:none;fill-rule:nonzero;fill:rgb(50.196078%,50.196078%,50.196078%);fill-opacity:1;" d="M 41.390625 19.335938 C 40.824219 18.78125 37.421875 16 26 16 C 14.578125 16 11.175781 18.78125 10.609375 19.335938 C 10.222656 19.714844 10 20.265625 10 20.84375 L 10 24 C 10 24.605469 10.242188 25.175781 10.660156 25.554688 C 10.980469 25.847656 11.375 26 11.777344 26 C 11.902344 26 12.027344 25.984375 12.152344 25.957031 C 12.230469 25.9375 20.328125 24 26 24 C 31.664063 24 39.769531 25.9375 39.851563 25.957031 C 40.371094 26.078125 40.921875 25.9375 41.339844 25.554688 C 41.757813 25.175781 42 24.605469 42 24 L 42 20.84375 C 42 20.265625 41.777344 19.714844 41.390625 19.335938 Z "/>
<path style="fill:none;stroke-width:2;stroke-linecap:round;stroke-linejoin:miter;stroke:rgb(50.196078%,50.196078%,50.196078%);stroke-opacity:1;stroke-miterlimit:10;" d="M 4.076172 7.197266 C 1.775391 8.912109 2.033203 11.087891 2.033203 11.087891 L 2.033203 18.746094 " transform="matrix(2,0,0,2,0,0)"/>
<path style=" stroke:none;fill-rule:nonzero;fill:rgb(50.196078%,50.196078%,50.196078%);fill-opacity:1;" d="M 7.539063 37.492188 C 7.539063 39.410156 5.984375 40.964844 4.066406 40.964844 C 2.152344 40.964844 0.597656 39.410156 0.597656 37.492188 C 0.597656 35.578125 2.152344 34.023438 4.066406 34.023438 C 5.984375 34.023438 7.539063 35.578125 7.539063 37.492188 Z "/>
<path style=" stroke:none;fill-rule:nonzero;fill:rgb(50.196078%,50.196078%,50.196078%);fill-opacity:1;" d="M 7.164063 42 C 7.164063 44.375 4 48.488281 4 48.488281 C 4 48.488281 0.835938 44.296875 0.835938 42 C 0.835938 40.253906 2.253906 38.832031 4.003906 38.832031 C 5.753906 38.832031 7.164063 40.253906 7.164063 42 Z "/>
</g>
</svg>
