<?xml version="1.0" encoding="UTF-8"?>
<svg xmlns="http://www.w3.org/2000/svg" xmlns:xlink="http://www.w3.org/1999/xlink" width="104pt" height="104pt" viewBox="0 0 104 104" version="1.1">
<g id="surface1">
<path style="fill:none;stroke-width:2;stroke-linecap:round;stroke-linejoin:miter;stroke:rgb(100%,100%,100%);stroke-opacity:1;stroke-miterlimit:10;" d="M 6 12 L 6 13.268555 C 6 13.268555 3.998047 13.075195 3.998047 15 C 3.998047 16.036133 4.789063 16.878906 5.798828 16.980469 C 7.237305 20.705078 9.450195 25 13 25 C 16.549805 25 18.762695 20.705078 20.201172 16.978516 C 21.208984 16.875977 21.998047 16.03418 21.998047 15 C 21.998047 13.003906 20 13.271484 20 13.271484 L 20 12 " transform="matrix(4,0,0,4,0,0)"/>
<path style=" stroke:none;fill-rule:nonzero;fill:rgb(100%,100%,100%);fill-opacity:1;" d="M 54.015625 0.542969 C 52.769531 -0.183594 51.234375 -0.183594 49.984375 0.542969 C 49.984375 0.542969 0.0859375 30.425781 0.0078125 31.761719 C -0.0664063 33.097656 20.328125 49.664063 20.328125 49.664063 C 21.730469 50.714844 24.613281 46.304688 26.023438 45.277344 C 20.152344 44.390625 13.1875 28.597656 52 27.320313 C 91.664063 26.015625 87.992188 36.015625 87.992188 46.152344 C 87.992188 46.152344 104.070313 33.097656 103.992188 31.761719 C 103.910156 30.425781 54.015625 0.542969 54.015625 0.542969 Z "/>
<path style=" stroke:none;fill-rule:nonzero;fill:rgb(100%,100%,100%);fill-opacity:1;" d="M 82.785156 38.671875 C 81.652344 37.558594 74.839844 32 52 32 C 29.160156 32 22.347656 37.558594 21.214844 38.671875 C 20.445313 39.433594 20 40.53125 20 41.683594 L 20 48 C 20 49.207031 20.488281 50.351563 21.320313 51.113281 C 21.960938 51.691406 22.753906 52 23.554688 52 C 23.804688 52 24.050781 51.972656 24.304688 51.910156 C 24.460938 51.871094 40.65625 48 52 48 C 63.328125 48 79.539063 51.871094 79.699219 51.910156 C 80.738281 52.160156 81.84375 51.871094 82.679688 51.113281 C 83.511719 50.351563 84 49.207031 84 48 L 84 41.683594 C 84 40.53125 83.554688 39.433594 82.785156 38.671875 Z "/>
<path style="fill:none;stroke-width:2;stroke-linecap:round;stroke-linejoin:miter;stroke:rgb(100%,100%,100%);stroke-opacity:1;stroke-miterlimit:10;" d="M 4.076172 7.198242 C 1.776367 8.913086 2.033203 11.087891 2.033203 11.087891 L 2.033203 18.746094 " transform="matrix(4,0,0,4,0,0)"/>
<path style=" stroke:none;fill-rule:nonzero;fill:rgb(100%,100%,100%);fill-opacity:1;" d="M 15.074219 74.988281 C 15.074219 78.820313 11.96875 81.929688 8.136719 81.929688 C 4.304688 81.929688 1.195313 78.820313 1.195313 74.988281 C 1.195313 71.15625 4.304688 68.046875 8.136719 68.046875 C 11.96875 68.046875 15.074219 71.15625 15.074219 74.988281 Z "/>
<path style=" stroke:none;fill-rule:nonzero;fill:rgb(100%,100%,100%);fill-opacity:1;" d="M 14.332031 84 C 14.332031 88.753906 8 96.976563 8 96.976563 C 8 96.976563 1.667969 88.597656 1.667969 84 C 1.667969 80.503906 4.503906 77.664063 8.003906 77.664063 C 11.503906 77.664063 14.332031 80.503906 14.332031 84 Z "/>
</g>
</svg>
